<svg width="19" height="16" viewBox="0 0 19 16" fill="none" xmlns="http://www.w3.org/2000/svg">
<path d="M10.079 15.4238C9.97414 15.3193 9.89093 15.1951 9.83415 15.0584C9.77737 14.9216 9.74814 14.775 9.74814 14.627C9.74814 14.4789 9.77737 14.3323 9.83415 14.1955C9.89093 14.0588 9.97414 13.9346 10.079 13.8301L14.9062 9.00289L1.12496 9.00289C0.826593 9.00289 0.540443 8.88436 0.329465 8.67338C0.118488 8.4624 -3.85044e-05 8.17626 -3.84913e-05 7.87789C-3.84783e-05 7.57952 0.118488 7.29337 0.329466 7.08239C0.540443 6.87141 0.826593 6.75289 1.12496 6.75289L14.9062 6.75289L10.079 1.92383C9.86768 1.71248 9.74895 1.42584 9.74895 1.12695C9.74895 0.828065 9.86768 0.541421 10.079 0.330076C10.2904 0.118732 10.577 -3.54263e-07 10.8759 -3.44348e-07C11.1748 -3.34432e-07 11.4614 0.118732 11.6728 0.330076L18.4228 7.08008C18.5277 7.18459 18.6109 7.30878 18.6677 7.44553C18.7244 7.58228 18.7537 7.72889 18.7537 7.87695C18.7537 8.02502 18.7244 8.17163 18.6677 8.30837C18.6109 8.44512 18.5277 8.56931 18.4228 8.67383L11.6728 15.4238C11.5683 15.5287 11.4441 15.6119 11.3073 15.6687C11.1706 15.7255 11.024 15.7547 10.8759 15.7547C10.7278 15.7547 10.5812 15.7255 10.4445 15.6687C10.3077 15.6119 10.1835 15.5287 10.079 15.4238Z" fill="white"/>
</svg>
